<?xml version="1.0" encoding="utf-8"?>
<!-- Generator: Adobe Illustrator 16.0.0, SVG Export Plug-In . SVG Version: 6.00 Build 0)  -->
<!DOCTYPE svg PUBLIC "-//W3C//DTD SVG 1.1//EN" "http://www.w3.org/Graphics/SVG/1.1/DTD/svg11.dtd">
<svg version="1.1" id="Layer_1" xmlns="http://www.w3.org/2000/svg" xmlns:xlink="http://www.w3.org/1999/xlink" x="0px" y="0px"
	 width="155.173px" height="206.208px" viewBox="0 0 155.173 206.208" enable-background="new 0 0 155.173 206.208"
	 xml:space="preserve">
<rect fill="none" width="155.173" height="206.208"/>
<g>
	<defs>
		<ellipse id="SVGID_1_" cx="77.386" cy="102.816" rx="73.375" ry="99.25"/>
	</defs>
	<clipPath id="SVGID_2_">
		<use xlink:href="#SVGID_1_"  overflow="visible"/>
	</clipPath>
	
		<rect x="-33.944" y="126.166" clip-path="url(#SVGID_2_)" fill="none" stroke="#FFFFFF" stroke-miterlimit="10" width="215" height="112.501"/>
	<path clip-path="url(#SVGID_2_)" fill="none" stroke="#FFFFFF" stroke-miterlimit="10" d="M73.511,173.316"/>
	
		<rect x="-33.817" y="1.128" clip-path="url(#SVGID_2_)" fill="none" stroke="#FFFFFF" stroke-miterlimit="10" width="215.25" height="124.5"/>
	<path clip-path="url(#SVGID_2_)" fill="none" stroke="#FFFFFF" stroke-miterlimit="10" d="M74.136,64.316"/>
	
		<line clip-path="url(#SVGID_2_)" fill="none" stroke="#FFFFFF" stroke-miterlimit="3.8637" x1="150.761" y1="114.585" x2="221.516" y2="43.83"/>
	<use xlink:href="#SVGID_1_"  overflow="visible" fill="none" stroke="#FFFFFF" stroke-miterlimit="3.8637"/>
</g>
<path fill="#FFFFFF" stroke="#000000" stroke-miterlimit="3.8637" d="M58.306,115.816l-4.75-3.75l3.5-6l-4.75-5l-6.75,2.75l-4.25-7
	l5.75-4.25l-1.5-6.25l-6.75-0.5l-0.25-9.5l6.5-0.25l1.75-5.75l-4.5-5l3-6l6.5,2l4.5-4.5l-2.25-5.75l7.5-4l4.25,5l6.5-2l1-6h8.75
	l1.5,5.75l5.75,2.25l4.75-5l7.25,3.75l-2,6l4.25,4.5l5.75-2.25l5,6.75l-4.75,5.25l0.75,5.75l7,0.75l0.25,8l-7.25,0.5l-1.5,6.75
	l5.25,3l-4.25,8.75l-6.75-2.75l-7.25,8c0,0-32,9-34.25,7.5S58.306,115.816,58.306,115.816z M54.306,80.941
	c0-12.357,10.577-22.375,23.625-22.375s23.625,10.018,23.625,22.375s-10.577,22.375-23.625,22.375S54.306,93.299,54.306,80.941z"/>
<g>
	<g>
		<circle fill="#FFFFFF" stroke="#000000" stroke-miterlimit="3.8637" cx="78.056" cy="67.816" r="5.5"/>
		<path fill="#FFFFFF" stroke="#000000" stroke-miterlimit="3.8637" d="M78.056,67.816"/>
	</g>
	<polygon fill="#FFFFFF" stroke="#000000" stroke-miterlimit="3.8637" points="76.056,62.941 80.369,63.004 80.494,59.379 
		79.306,58.691 79.181,56.316 77.306,56.316 77.306,58.754 76.056,59.316 	"/>
	<g>
		<polygon fill="#FFFFFF" stroke="#000000" stroke-miterlimit="3.8637" points="48.806,119.316 49.056,125.066 74.306,143.816 
			110.306,119.316 110.056,114.566 74.056,138.316 		"/>
		<polygon fill="#FFFFFF" stroke="#000000" stroke-miterlimit="3.8637" points="86.056,96.316 109.806,114.816 74.306,138.316 
			48.556,119.816 		"/>
	</g>
	<g>
		<polygon fill="#FFFFFF" stroke="#000000" stroke-miterlimit="3.8637" points="78.306,62.816 99.556,121.566 78.556,76.316 
			56.806,123.066 		"/>
		<g>
			<path fill="#FFFFFF" stroke="#000000" stroke-miterlimit="3.8637" d="M66.806,71.066c0,0,1,9,10.75,10.25c0,0,8.5,0.75,8.75,5.75
				c0,0,1.5,4.5-7.75,4c0,0-17.5-3.75-15.25-16.5L66.806,71.066z"/>
			<path fill="#FFFFFF" stroke="#000000" stroke-miterlimit="3.8637" d="M62.806,72.816c0,0,1,9,10.75,10.25c0,0,8.5,0.75,8.75,5.75
				c0,0,1.5,4.5-7.75,4c0,0-17.5-3.75-15.25-16.5L62.806,72.816z"/>
		</g>
		<g>
			<g>
				<path fill="#FFFFFF" stroke="#000000" stroke-miterlimit="3.8637" d="M64.156,91.066h27.05c0.055,0,0.1,0.045,0.1,0.1v6.05
					c0,0.055-0.045,0.1-0.1,0.1h-27.05c-0.055,0-0.1-0.045-0.1-0.1v-6.05C64.056,91.111,64.101,91.066,64.156,91.066L64.156,91.066z
					"/>
				<path fill="#FFFFFF" stroke="#000000" stroke-miterlimit="3.8637" d="M77.681,94.191"/>
			</g>
			<g>
				<path fill="#FFFFFF" stroke="#000000" stroke-miterlimit="3.8637" d="M66.656,96.816h22.8c0.055,0,0.1,0.045,0.1,0.1v5.55
					c0,0.055-0.045,0.1-0.1,0.1h-22.8c-0.055,0-0.1-0.045-0.1-0.1v-5.55C66.556,96.861,66.601,96.816,66.656,96.816L66.656,96.816z"
					/>
				<path fill="#FFFFFF" stroke="#000000" stroke-miterlimit="3.8637" d="M78.056,99.691"/>
			</g>
			<g>
				<path fill="#FFFFFF" stroke="#000000" stroke-miterlimit="3.8637" d="M70.156,115.316h15.05c0.055,0,0.1,0.045,0.1,0.1v3.551
					c0,0.055-0.045,0.1-0.1,0.1h-15.05c-0.055,0-0.1-0.045-0.1-0.1v-3.551C70.056,115.361,70.101,115.316,70.156,115.316
					L70.156,115.316z"/>
				<path fill="#FFFFFF" stroke="#000000" stroke-miterlimit="3.8637" d="M77.681,117.191"/>
			</g>
			<g>
				<rect x="71.806" y="118.816" fill="#FFFFFF" stroke="#000000" stroke-miterlimit="3.8637" width="12.25" height="52.5"/>
				<path fill="#FFFFFF" stroke="#000000" stroke-miterlimit="3.8637" d="M77.931,145.066"/>
			</g>
			<g>
				<rect x="74.056" y="118.816" fill="#FFFFFF" stroke="#000000" stroke-miterlimit="3.8637" width="8" height="52.25"/>
				<path fill="#FFFFFF" stroke="#000000" stroke-miterlimit="3.8637" d="M78.056,144.941"/>
			</g>
			<path fill="#FFFFFF" stroke="#000000" stroke-miterlimit="3.8637" d="M67.806,102.566h20.75c0,0-5.25,5-4.25,12.5h-12.75
				c0,0,0-3.25-1.5-7.5L67.806,102.566z"/>
			<path fill="#FFFFFF" stroke="#000000" stroke-miterlimit="3.8637" d="M70.056,102.816c0,0,3.25,4.75,3.5,12.25"/>
			<path fill="#FFFFFF" stroke="#000000" stroke-miterlimit="3.8637" d="M86.056,102.316c0,0-4.5,3.75-4,12.5"/>
		</g>
	</g>
</g>
<g>
	<path fill="#FFFFFF" stroke="#FFFFFF" stroke-miterlimit="10" d="M12.193,111.409l0.086,0.051c0.068,0.487,0.27,0.738,0.603,0.755
		c0.185,0.007,0.581-0.023,1.187-0.091c0.45-0.051,1.099-0.135,1.944-0.254l2.383-0.335c1.532-0.215,2.659-0.127,3.382,0.263
		c0.957,0.518,1.518,1.369,1.684,2.553c0.152,1.081,0.046,1.957-0.317,2.626c-0.31,0.565-0.804,0.976-1.484,1.231
		c-0.435,0.162-1.599,0.376-3.491,0.643l-1.996,0.279c-1.228,0.173-2.023,0.313-2.387,0.418c-0.147,0.041-0.233,0.125-0.257,0.251
		c-0.012,0.064-0.004,0.31,0.024,0.735l-0.069,0.072l-0.518,0.072l-0.086-0.051c-0.024-0.4-0.098-1.038-0.221-1.912
		c-0.125-0.892-0.23-1.523-0.313-1.895l0.069-0.072l0.518-0.072l0.086,0.051c0.09,0.416,0.15,0.654,0.179,0.713
		c0.058,0.113,0.163,0.171,0.316,0.17c0.379,0.002,1.182-0.084,2.41-0.256l1.594-0.225c1.949-0.273,3.133-0.512,3.552-0.713
		c0.827-0.402,1.163-1.154,1.008-2.257c-0.102-0.722-0.402-1.254-0.903-1.596c-0.238-0.16-0.471-0.262-0.698-0.306
		s-0.57-0.054-1.03-0.032c-0.428,0.022-0.859,0.063-1.292,0.125l-1.609,0.226c-1.351,0.19-2.273,0.324-2.768,0.402
		c-0.463,0.072-0.761,0.141-0.895,0.201c-0.099,0.047-0.168,0.131-0.209,0.25c-0.033,0.102-0.036,0.361-0.009,0.777l-0.069,0.073
		l-0.518,0.073l-0.086-0.052c-0.02-0.363-0.056-0.734-0.109-1.114c-0.04-0.285-0.132-0.829-0.277-1.633l0.068-0.073L12.193,111.409z
		"/>
	<path fill="#FFFFFF" stroke="#FFFFFF" stroke-miterlimit="10" d="M11.621,100.278l0.082,0.064c0.053,0.423,0.092,0.665,0.116,0.726
		c0.048,0.119,0.148,0.184,0.3,0.197c0.377,0.034,1.185,0.019,2.423-0.045l3.167-0.166c2.335-0.123,3.855-0.229,4.56-0.321
		l0.074,0.078c-0.074,0.476-0.125,0.835-0.154,1.078c-1.507,1.197-4.263,3.25-8.267,6.16l5.102-0.267
		c1.238-0.065,2.043-0.134,2.415-0.208c0.15-0.029,0.242-0.104,0.277-0.228c0.018-0.063,0.031-0.308,0.04-0.734l0.075-0.066
		l0.53-0.028l0.074,0.059c-0.006,0.48,0.001,0.926,0.023,1.338c0.025,0.479,0.066,0.958,0.123,1.439l-0.067,0.066l-0.531,0.028
		l-0.081-0.058c-0.054-0.423-0.092-0.665-0.116-0.727c-0.048-0.118-0.148-0.184-0.3-0.197c-0.377-0.035-1.185-0.02-2.423,0.045
		l-4.127,0.216c-1.238,0.065-2.042,0.134-2.414,0.208c-0.15,0.029-0.242,0.104-0.278,0.228c-0.017,0.063-0.03,0.308-0.04,0.734
		l-0.075,0.066l-0.531,0.028l-0.073-0.059c0.011-0.396,0.006-0.774-0.012-1.132c-0.03-0.562-0.069-1.027-0.12-1.396
		c2.418-1.629,5.001-3.529,7.751-5.701l-4.564,0.239c-1.238,0.065-2.042,0.134-2.414,0.208c-0.15,0.029-0.243,0.104-0.278,0.227
		c-0.018,0.063-0.031,0.309-0.04,0.734l-0.075,0.066l-0.531,0.028l-0.073-0.059c0.007-0.467-0.001-0.912-0.023-1.332
		c-0.028-0.537-0.069-1.019-0.123-1.445l0.067-0.066L11.621,100.278z"/>
	<path fill="#FFFFFF" stroke="#FFFFFF" stroke-miterlimit="10" d="M22.063,95.304l0.078,0.056c-0.031,0.417-0.047,1.061-0.047,1.931
		c0,0.867,0.016,1.508,0.047,1.925l-0.078,0.056H21.54l-0.078-0.063c-0.031-0.425-0.058-0.668-0.079-0.731
		c-0.042-0.121-0.138-0.192-0.289-0.213c-0.375-0.054-1.182-0.081-2.422-0.081H14.54c-1.239,0-2.046,0.027-2.421,0.081
		c-0.151,0.021-0.248,0.092-0.29,0.213c-0.021,0.063-0.047,0.306-0.078,0.731l-0.079,0.063h-0.531l-0.07-0.063
		c0.032-0.4,0.047-1.042,0.047-1.925c0-0.879-0.016-1.519-0.047-1.919l0.07-0.063h0.531l0.079,0.063
		c0.031,0.425,0.057,0.669,0.078,0.731c0.042,0.121,0.138,0.191,0.29,0.212c0.375,0.054,1.182,0.081,2.421,0.081h4.133
		c1.24,0,2.047-0.027,2.422-0.081c0.151-0.021,0.248-0.092,0.289-0.212c0.021-0.063,0.047-0.306,0.079-0.731l0.078-0.063H22.063z"/>
	<path fill="#FFFFFF" stroke="#FFFFFF" stroke-miterlimit="10" d="M12.298,84.771l0.074,0.067c0.016,0.293,0.046,0.483,0.089,0.567
		c0.044,0.084,0.156,0.179,0.337,0.283c0.195,0.114,0.671,0.327,1.428,0.639l1.286,0.535l2.482,1.013
		c2.132,0.872,3.633,1.463,4.504,1.775l-0.066,0.948l-8.874,2.255c-0.925,0.24-1.46,0.416-1.603,0.527
		c-0.116,0.084-0.193,0.333-0.233,0.749l-0.09,0.056l-0.514-0.036l-0.081-0.074c0.062-0.435,0.116-0.984,0.162-1.649
		c0.058-0.831,0.096-1.589,0.112-2.272l0.09-0.056l0.522,0.037l0.074,0.062c-0.024,0.42,0.003,0.7,0.083,0.839
		c0.047,0.074,0.132,0.116,0.257,0.125c0.135,0.009,0.638-0.091,1.509-0.302l0.948-0.228l4.981-1.237l-4.245-1.688
		c-0.163-0.066-0.572-0.22-1.229-0.462c-0.946-0.35-1.5-0.531-1.662-0.542c-0.171-0.012-0.278,0.026-0.321,0.116
		c-0.042,0.089-0.091,0.365-0.144,0.829l-0.082,0.057l-0.53-0.037L11.49,87.59c0.064-0.467,0.114-0.955,0.149-1.462
		c0.025-0.361,0.041-0.805,0.046-1.331l0.091-0.063L12.298,84.771z"/>
	<path fill="#FFFFFF" stroke="#FFFFFF" stroke-miterlimit="10" d="M21.117,78.125c0.74,0.196,1.585,0.361,2.534,0.495l0.069,0.073
		l-0.679,4.493c-0.105,0.751-0.165,1.283-0.177,1.597l-0.086,0.051l-0.217-0.03l-0.088-0.044c-0.2-0.34-0.329-0.526-0.387-0.56
		c-0.093-0.051-0.433-0.122-1.02-0.212l-1.73-0.262l-3.922-0.551c-1.228-0.173-2.031-0.258-2.409-0.257
		c-0.153,0-0.258,0.057-0.316,0.17c-0.029,0.059-0.089,0.296-0.179,0.713l-0.086,0.051l-0.526-0.074l-0.061-0.072
		c0.09-0.413,0.196-1.054,0.318-1.925c0.109-0.775,0.301-2.252,0.575-4.431l0.072-0.06l0.847,0.201
		c0.27,0.063,0.5,0.114,0.688,0.153l0.714,0.145l0.076,0.074l-0.051,0.359l-0.086,0.051c-0.702-0.094-1.106-0.118-1.213-0.069
		c-0.079,0.035-0.167,0.249-0.264,0.641c-0.097,0.393-0.167,0.739-0.209,1.041c-0.05,0.359-0.083,0.725-0.099,1.097
		c0.535,0.122,1.282,0.25,2.242,0.385l1.601,0.225c0.072-0.322,0.122-0.585,0.15-0.787l0.106-0.812
		c0.048-0.38,0.04-0.601-0.025-0.66c-0.083-0.079-0.426-0.171-1.026-0.277l-0.068-0.073l0.054-0.383l0.086-0.051
		c0.575,0.098,1.103,0.18,1.583,0.248c0.521,0.073,1.092,0.145,1.713,0.215l0.061,0.072l-0.059,0.415l-0.086,0.051
		c-0.593-0.083-0.95-0.1-1.07-0.049s-0.222,0.24-0.305,0.569c-0.061,0.248-0.111,0.514-0.151,0.799
		c-0.042,0.301-0.069,0.583-0.08,0.847l2.359,0.332c0.676,0.095,1.332,0.177,1.97,0.245l0.118-0.842
		c0.169-1.205,0.213-1.952,0.133-2.241c-0.014-0.048-0.038-0.085-0.071-0.111c-0.066-0.051-0.215-0.112-0.447-0.183l-0.938-0.283
		l-0.077-0.074l0.053-0.377L21.117,78.125z"/>
	<path fill="#FFFFFF" stroke="#FFFFFF" stroke-miterlimit="10" d="M25.512,69.643l0.063,0.077c-0.006,0.029-0.025,0.105-0.057,0.231
		c-0.144,0.553-0.231,0.898-0.26,1.037c-0.044,0.208-0.099,0.541-0.165,1c-0.126-0.01-0.346,0.024-0.661,0.103l-3.485,0.843
		l-1.436,0.404c-0.176,0.052-0.357,0.139-0.543,0.262l-0.245-0.123c0.025-0.093,0.042-0.162,0.051-0.206
		c0.085-0.4,0.073-0.73-0.037-0.992c-0.098-0.238-0.307-0.483-0.626-0.734s-0.727-0.429-1.221-0.534
		c-0.861-0.183-1.496-0.05-1.906,0.399c-0.195,0.214-0.342,0.556-0.441,1.024c-0.043,0.204-0.064,0.404-0.063,0.6
		c0.491,0.147,1.337,0.348,2.54,0.604l3.996,0.85c1.213,0.258,2.008,0.399,2.386,0.424c0.152,0.011,0.261-0.038,0.327-0.147
		c0.034-0.057,0.11-0.29,0.229-0.699l0.089-0.045l0.512,0.109l0.064,0.071c-0.117,0.401-0.266,1.025-0.446,1.873
		c-0.187,0.876-0.304,1.507-0.354,1.893l-0.082,0.047l-0.52-0.11l-0.063-0.078c0.058-0.422,0.083-0.666,0.075-0.731
		c-0.016-0.127-0.095-0.216-0.238-0.268c-0.355-0.131-1.14-0.325-2.352-0.583l-4.042-0.859c-1.212-0.258-2.008-0.399-2.386-0.424
		c-0.152-0.011-0.261,0.038-0.327,0.148c-0.033,0.057-0.109,0.29-0.229,0.699l-0.089,0.045l-0.52-0.11l-0.056-0.076
		c0.116-0.393,0.265-1.018,0.446-1.874c0.106-0.497,0.184-0.902,0.234-1.215c0.1-0.622,0.183-1.086,0.248-1.392
		c0.15-0.705,0.339-1.206,0.567-1.502c0.308-0.398,0.733-0.619,1.275-0.662c0.265-0.02,0.568,0.006,0.91,0.079
		c1.386,0.295,2.236,1.127,2.552,2.498c0.471-0.113,0.95-0.236,1.437-0.372l2.011-0.557c1.188-0.327,1.875-0.566,2.062-0.718
		c0.096-0.078,0.162-0.2,0.197-0.367l0.09-0.045L25.512,69.643z"/>
	<path fill="#FFFFFF" stroke="#FFFFFF" stroke-miterlimit="10" d="M24.149,61.912c0.822,0.251,1.489,0.66,2.002,1.227
		c0.453,0.496,0.733,1.05,0.84,1.662c0.101,0.563,0.048,1.18-0.158,1.854c-0.256,0.837-0.746,1.584-1.47,2.243l-0.187,0.021
		c-0.539-0.287-1.336-0.591-2.392-0.914l-0.057-0.083l0.117-0.382l0.091-0.031l0.172,0.052c0.279,0.085,0.655,0.174,1.127,0.266
		c0.363-0.046,0.715-0.219,1.058-0.52c0.357-0.313,0.6-0.679,0.728-1.098c0.241-0.789,0.064-1.439-0.531-1.953
		c-0.306-0.264-0.648-0.453-1.027-0.569c-0.637-0.195-1.158-0.121-1.563,0.221c-0.199,0.17-0.416,0.477-0.649,0.919
		c-0.529,1.001-1,1.622-1.411,1.862c-0.623,0.363-1.425,0.395-2.406,0.095c-1.021-0.313-1.751-0.836-2.191-1.572
		c-0.46-0.777-0.531-1.683-0.214-2.719c0.285-0.932,0.702-1.628,1.251-2.087l0.192,0.013c0.563,0.277,1.258,0.552,2.084,0.827
		l0.054,0.089l-0.115,0.376l-0.093,0.037c-0.602-0.171-0.996-0.27-1.184-0.296c-0.272,0.052-0.537,0.206-0.795,0.463
		c-0.269,0.275-0.458,0.589-0.566,0.944c-0.164,0.534-0.116,1.011,0.143,1.43c0.245,0.393,0.631,0.67,1.159,0.832
		c0.573,0.175,1.044,0.138,1.415-0.11c0.24-0.162,0.562-0.619,0.966-1.371c0.041-0.079,0.162-0.297,0.363-0.653
		c0.122-0.22,0.26-0.415,0.416-0.585c0.312-0.345,0.694-0.559,1.144-0.644C22.956,61.667,23.517,61.718,24.149,61.912z"/>
	<path fill="#FFFFFF" stroke="#FFFFFF" stroke-miterlimit="10" d="M29.207,58.559l0.054,0.08c-0.172,0.381-0.406,0.98-0.704,1.798
		c-0.296,0.814-0.501,1.423-0.615,1.825l-0.092,0.026l-0.492-0.179l-0.052-0.085c0.116-0.41,0.175-0.648,0.176-0.714
		c0.002-0.128-0.064-0.228-0.199-0.299c-0.334-0.179-1.083-0.48-2.248-0.904l-3.883-1.414c-1.165-0.424-1.933-0.675-2.304-0.752
		c-0.149-0.032-0.264,0.001-0.345,0.101c-0.041,0.052-0.148,0.272-0.323,0.661l-0.095,0.032l-0.5-0.182l-0.044-0.083
		c0.166-0.365,0.4-0.962,0.703-1.792c0.301-0.826,0.504-1.433,0.612-1.819l0.087-0.035l0.5,0.182l0.052,0.085
		c-0.116,0.41-0.175,0.648-0.177,0.714c-0.002,0.127,0.064,0.227,0.199,0.298c0.334,0.179,1.083,0.48,2.248,0.905l3.883,1.413
		c1.165,0.424,1.933,0.675,2.304,0.752c0.149,0.032,0.264-0.001,0.344-0.101c0.041-0.051,0.149-0.271,0.324-0.66l0.095-0.032
		L29.207,58.559z"/>
	<path fill="#FFFFFF" stroke="#FFFFFF" stroke-miterlimit="10" d="M28.042,46.599c1.587,0.774,2.701,1.829,3.341,3.166
		c0.313,0.653,0.469,1.337,0.469,2.051c0.003,0.766-0.206,1.557-0.626,2.371l-1.009,1.962c-0.272,0.535-0.476,0.987-0.61,1.357
		l-0.097,0.022l-0.197-0.096l-0.071-0.069c-0.084-0.384-0.15-0.602-0.195-0.651c-0.068-0.075-0.369-0.247-0.904-0.517l-1.564-0.784
		l-3.56-1.736c-1.114-0.543-1.852-0.873-2.212-0.989c-0.145-0.047-0.263-0.026-0.353,0.064c-0.046,0.047-0.177,0.254-0.391,0.623
		l-0.098,0.022l-0.478-0.233l-0.036-0.087c0.222-0.383,0.42-0.754,0.596-1.114c0.426-0.873,0.795-1.666,1.108-2.38
		c0.156-0.355,0.319-0.709,0.491-1.061c0.475-0.974,0.978-1.653,1.507-2.039c0.582-0.421,1.277-0.634,2.085-0.638
		C26.068,45.84,27.003,46.092,28.042,46.599z M27.538,48.487c-1.297-0.632-2.416-0.868-3.358-0.706
		c-0.493,0.084-0.91,0.286-1.252,0.606c-0.323,0.306-0.648,0.794-0.975,1.465c-0.17,0.348-0.302,0.696-0.396,1.044
		c0.506,0.293,1.765,0.931,3.778,1.912l3.074,1.485c0.686,0.33,1.147,0.536,1.384,0.62c0.226-0.297,0.423-0.619,0.591-0.963
		c0.364-0.745,0.515-1.399,0.453-1.962c-0.068-0.608-0.389-1.221-0.963-1.839C29.281,49.511,28.502,48.958,27.538,48.487z"/>
	<path fill="#FFFFFF" stroke="#FFFFFF" stroke-miterlimit="10" d="M39.086,40.884l0.033,0.09c-0.543,0.75-0.868,1.204-0.975,1.362
		c-0.429,0.636-0.814,1.235-1.157,1.798l-0.096,0.003l-0.408-0.275l-0.037-0.1l0.271-0.472c0.115-0.199,0.095-0.351-0.06-0.456
		c-0.091-0.061-0.326-0.149-0.707-0.266l-1.65-0.502c-0.33,0.471-0.663,0.955-0.999,1.453c-0.182,0.269-0.448,0.673-0.798,1.21
		l0.637,0.761c0.483,0.578,0.801,0.917,0.952,1.019c0.164,0.111,0.316,0.095,0.456-0.047c0.078-0.078,0.214-0.243,0.408-0.494
		l0.1-0.008l0.414,0.28l0.03,0.096c-0.457,0.622-0.747,1.024-0.871,1.207c-0.095,0.142-0.319,0.501-0.67,1.078l-0.093,0.013
		l-0.421-0.284l-0.026-0.101c0.214-0.373,0.273-0.651,0.176-0.834c-0.096-0.183-0.791-1.095-2.084-2.736l-3.317-4.205
		c-0.261-0.321-0.653-0.807-1.176-1.457l0.496-0.735l9.929,2.702c0.378,0.1,0.617,0.119,0.714,0.059
		c0.128-0.079,0.265-0.226,0.41-0.44l0.103,0.001L39.086,40.884z M33.386,41.819l-4.142-1.18l2.678,3.351
		c0.204-0.274,0.458-0.638,0.764-1.09C32.981,42.46,33.215,42.101,33.386,41.819z"/>
	<path fill="#FFFFFF" stroke="#FFFFFF" stroke-miterlimit="10" d="M41.534,29.164c1.292,1.205,2.048,2.539,2.27,4.005
		c0.108,0.716,0.058,1.416-0.151,2.098C43.431,36,43,36.695,42.36,37.351l-1.539,1.582c-0.417,0.432-0.744,0.805-0.98,1.12
		l-0.1-0.008l-0.16-0.149l-0.047-0.087c0.031-0.393,0.033-0.619,0.004-0.68c-0.043-0.091-0.281-0.344-0.713-0.759l-1.267-1.208
		l-2.897-2.701c-0.906-0.845-1.515-1.376-1.827-1.592c-0.125-0.088-0.243-0.102-0.356-0.042c-0.058,0.032-0.243,0.192-0.556,0.482
		l-0.1-0.008l-0.389-0.362l-0.009-0.094c0.324-0.301,0.623-0.599,0.896-0.891c0.662-0.71,1.247-1.36,1.756-1.952
		c0.252-0.294,0.513-0.584,0.78-0.871c0.739-0.792,1.418-1.295,2.038-1.51c0.68-0.232,1.406-0.232,2.18-0.001
		C39.869,27.861,40.688,28.375,41.534,29.164z M40.5,30.823c-1.055-0.984-2.057-1.536-3.005-1.657
		c-0.497-0.064-0.955,0.008-1.375,0.214c-0.398,0.198-0.852,0.57-1.36,1.116c-0.264,0.283-0.492,0.577-0.684,0.882
		c0.398,0.429,1.416,1.406,3.054,2.934l2.505,2.319c0.559,0.516,0.939,0.848,1.142,0.997c0.304-0.218,0.586-0.468,0.848-0.748
		c0.565-0.606,0.901-1.188,1.007-1.744c0.112-0.602-0.015-1.282-0.383-2.041C41.868,32.312,41.285,31.555,40.5,30.823z"/>
	<path fill="#FFFFFF" stroke="#FFFFFF" stroke-miterlimit="10" d="M56.556,25.803l-0.004,0.096c-0.793,0.478-1.27,0.769-1.43,0.873
		c-0.643,0.417-1.232,0.819-1.768,1.203l-0.089-0.035l-0.268-0.413l0.005-0.106l0.435-0.329c0.184-0.138,0.225-0.286,0.123-0.443
		c-0.06-0.092-0.242-0.265-0.547-0.521l-1.322-1.107c-0.488,0.305-0.983,0.62-1.486,0.947c-0.272,0.177-0.675,0.444-1.208,0.802
		l0.289,0.949c0.219,0.721,0.379,1.157,0.478,1.311c0.108,0.166,0.254,0.211,0.438,0.135c0.102-0.042,0.292-0.14,0.568-0.295
		l0.095,0.032l0.272,0.419l-0.01,0.1c-0.663,0.394-1.087,0.65-1.273,0.771c-0.143,0.093-0.489,0.336-1.039,0.73l-0.091-0.025
		l-0.276-0.426l0.015-0.103c0.343-0.26,0.506-0.493,0.489-0.699c-0.017-0.206-0.3-1.317-0.849-3.333l-1.411-5.167
		c-0.114-0.398-0.285-0.998-0.513-1.8l0.745-0.483l8.083,6.367c0.31,0.24,0.521,0.351,0.634,0.333
		c0.149-0.022,0.332-0.104,0.549-0.245l0.094,0.042L56.556,25.803z M50.943,24.436l-3.351-2.705l1.155,4.131
		c0.295-0.173,0.671-0.408,1.129-0.705C50.32,24.869,50.676,24.628,50.943,24.436z"/>
	<path fill="#FFFFFF" stroke="#FFFFFF" stroke-miterlimit="10" d="M62.41,12.462l-0.032,0.095c-0.462,0.168-0.667,0.417-0.613,0.747
		c0.031,0.183,0.143,0.563,0.336,1.142c0.143,0.43,0.361,1.046,0.653,1.849l0.823,2.261c0.529,1.454,0.678,2.575,0.446,3.363
		c-0.308,1.043-1.023,1.769-2.147,2.178c-1.026,0.374-1.904,0.452-2.634,0.236c-0.618-0.186-1.122-0.584-1.513-1.196
		c-0.249-0.392-0.7-1.485-1.354-3.281l-0.689-1.895c-0.424-1.165-0.726-1.914-0.905-2.248c-0.071-0.135-0.171-0.201-0.299-0.199
		c-0.065,0.001-0.304,0.061-0.713,0.177l-0.085-0.052l-0.179-0.492l0.032-0.095c0.387-0.107,0.995-0.312,1.825-0.614
		c0.846-0.308,1.441-0.542,1.787-0.701l0.085,0.052l0.179,0.492l-0.032,0.095c-0.389,0.175-0.609,0.283-0.661,0.324
		c-0.099,0.081-0.133,0.195-0.101,0.344c0.077,0.371,0.328,1.139,0.752,2.304l0.55,1.512c0.673,1.85,1.152,2.959,1.437,3.327
		c0.565,0.725,1.371,0.897,2.416,0.517c0.686-0.25,1.143-0.654,1.374-1.215c0.107-0.266,0.159-0.515,0.154-0.746
		c-0.004-0.231-0.065-0.569-0.183-1.014c-0.11-0.414-0.241-0.827-0.391-1.238l-0.556-1.527c-0.467-1.282-0.79-2.157-0.968-2.624
		c-0.168-0.438-0.296-0.716-0.383-0.834c-0.067-0.086-0.163-0.137-0.289-0.152c-0.106-0.011-0.36,0.04-0.762,0.153l-0.085-0.052
		l-0.179-0.492l0.032-0.095c0.351-0.094,0.707-0.207,1.067-0.338c0.27-0.098,0.784-0.302,1.541-0.61l0.085,0.052L62.41,12.462z"/>
	<path fill="#FFFFFF" stroke="#FFFFFF" stroke-miterlimit="10" d="M73.025,10.107c0.004,0.389,0.033,0.787,0.086,1.195l0.17,1.294
		l-0.052,0.086l-0.39,0.055l-0.078-0.06c-0.113-0.657-0.19-1.041-0.231-1.151c-0.079-0.199-0.228-0.302-0.447-0.308
		c-0.084-0.004-0.474,0.042-1.167,0.14l-0.829,0.117c0.017,0.182,0.114,0.899,0.29,2.152l0.617,4.394
		c0.173,1.228,0.312,2.023,0.417,2.387c0.042,0.146,0.125,0.232,0.251,0.257c0.064,0.012,0.31,0.003,0.735-0.024l0.073,0.068
		l0.073,0.519l-0.051,0.086c-0.413,0.026-1.05,0.1-1.913,0.222c-0.883,0.124-1.517,0.229-1.9,0.314l-0.065-0.062l-0.074-0.526
		l0.051-0.086c0.417-0.09,0.654-0.15,0.713-0.179c0.114-0.058,0.17-0.163,0.17-0.316c0.001-0.378-0.084-1.182-0.256-2.41
		l-0.618-4.394c-0.179-1.274-0.286-1.99-0.321-2.148l-0.885,0.124c-0.738,0.104-1.166,0.193-1.281,0.267
		c-0.062,0.04-0.102,0.085-0.12,0.135c-0.025,0.087-0.033,0.257-0.023,0.508c0.01,0.278,0.031,0.562,0.063,0.852l-0.051,0.086
		l-0.39,0.055l-0.079-0.068l-0.199-1.321c-0.056-0.371-0.135-0.751-0.236-1.142l0.045-0.085c0.251,0.018,1.142-0.081,2.672-0.296
		l2.506-0.352c1.411-0.198,2.295-0.349,2.651-0.452L73.025,10.107z"/>
	<path fill="#FFFFFF" stroke="#FFFFFF" stroke-miterlimit="10" d="M85.165,15.517c-0.101,1.919-0.626,3.401-1.579,4.447
		c-0.924,1.016-2.141,1.484-3.646,1.405c-1.423-0.075-2.514-0.634-3.273-1.677c-0.758-1.044-1.091-2.458-0.998-4.242
		c0.132-2.502,0.986-4.194,2.563-5.076c0.718-0.4,1.584-0.574,2.6-0.521c1.452,0.076,2.557,0.611,3.313,1.605
		C84.914,12.468,85.253,13.821,85.165,15.517z M83.221,15.822c0.079-1.508-0.101-2.718-0.538-3.631
		c-0.439-0.912-1.126-1.393-2.063-1.442c-1.236-0.065-2.092,0.587-2.568,1.954c-0.245,0.702-0.391,1.495-0.438,2.379
		c-0.084,1.607,0.086,2.889,0.512,3.845c0.441,0.988,1.15,1.507,2.128,1.559c1.187,0.063,2.021-0.627,2.505-2.067
		C83.017,17.655,83.17,16.789,83.221,15.822z"/>
	<path fill="#FFFFFF" stroke="#FFFFFF" stroke-miterlimit="10" d="M98.31,14.162l-0.088,0.056c-0.416-0.087-0.658-0.129-0.724-0.126
		c-0.128,0.007-0.222,0.08-0.284,0.219c-0.155,0.346-0.404,1.114-0.746,2.306l-0.874,3.049c-0.645,2.248-1.038,3.72-1.181,4.416
		l-0.098,0.045c-0.426-0.225-0.748-0.391-0.969-0.498c-0.643-1.814-1.686-5.088-3.133-9.822l-1.408,4.912
		c-0.342,1.191-0.539,1.975-0.59,2.35c-0.021,0.151,0.02,0.263,0.125,0.336c0.054,0.038,0.281,0.13,0.681,0.277l0.038,0.092
		l-0.146,0.511l-0.079,0.05c-0.452-0.162-0.876-0.3-1.272-0.414c-0.461-0.132-0.928-0.25-1.4-0.353l-0.041-0.085l0.146-0.51
		l0.082-0.058c0.416,0.087,0.658,0.129,0.724,0.126c0.128-0.007,0.222-0.08,0.284-0.219c0.155-0.346,0.404-1.114,0.746-2.306
		l1.139-3.973c0.342-1.191,0.538-1.975,0.59-2.351c0.021-0.151-0.021-0.263-0.125-0.336c-0.055-0.037-0.281-0.129-0.682-0.276
		l-0.038-0.093l0.146-0.511l0.08-0.05c0.372,0.139,0.73,0.258,1.074,0.357c0.541,0.155,0.994,0.269,1.359,0.341
		c0.752,2.817,1.708,5.878,2.866,9.185l1.26-4.393c0.342-1.191,0.538-1.975,0.589-2.351c0.021-0.151-0.02-0.263-0.124-0.336
		c-0.054-0.037-0.281-0.129-0.681-0.276l-0.039-0.093l0.146-0.511l0.079-0.05c0.44,0.159,0.862,0.296,1.267,0.412
		c0.518,0.148,0.986,0.267,1.407,0.354l0.04,0.085L98.31,14.162z"/>
	<path fill="#FFFFFF" stroke="#FFFFFF" stroke-miterlimit="10" d="M107.716,24.947c-1.02,1.63-2.197,2.671-3.537,3.124
		c-1.302,0.44-2.592,0.26-3.871-0.54c-1.208-0.755-1.892-1.773-2.049-3.054c-0.158-1.281,0.236-2.679,1.184-4.194
		c1.327-2.125,2.895-3.19,4.702-3.197c0.821-0.002,1.664,0.266,2.526,0.805c1.232,0.771,1.939,1.774,2.12,3.011
		C108.974,22.159,108.616,23.507,107.716,24.947z M105.869,24.271c0.8-1.281,1.229-2.427,1.289-3.437
		c0.059-1.01-0.31-1.764-1.104-2.261c-1.05-0.656-2.114-0.501-3.194,0.464c-0.555,0.495-1.066,1.118-1.535,1.869
		c-0.854,1.365-1.325,2.568-1.416,3.611c-0.094,1.078,0.274,1.876,1.104,2.395c1.007,0.629,2.071,0.432,3.193-0.593
		C104.8,25.775,105.355,25.093,105.869,24.271z"/>
	<path fill="#FFFFFF" stroke="#FFFFFF" stroke-miterlimit="10" d="M114.21,38.711l-0.1,0.011c-0.27-0.313-0.713-0.778-1.328-1.394
		c-0.631-0.631-1.096-1.073-1.395-1.328l0.01-0.09l0.375-0.375l0.1-0.011c0.323,0.278,0.514,0.432,0.572,0.462
		c0.115,0.056,0.234,0.038,0.355-0.054c0.303-0.227,0.893-0.779,1.77-1.655l3.734-3.734l-3.51,1.539
		c-0.196,0.084-0.903,0.408-2.121,0.972l-3.019,1.401l-0.296-0.296c0.303-0.61,0.672-1.394,1.105-2.353l1.021-2.259l1.854-4.168
		l-3.834,3.833c-0.877,0.877-1.428,1.467-1.654,1.771c-0.093,0.122-0.111,0.24-0.055,0.354c0.029,0.059,0.184,0.25,0.461,0.572
		l-0.01,0.1l-0.376,0.375l-0.095,0.005c-0.316-0.361-0.62-0.687-0.912-0.979c-0.339-0.338-0.689-0.668-1.054-0.988l0.005-0.094
		l0.377-0.375l0.099-0.011c0.323,0.279,0.514,0.433,0.572,0.462c0.114,0.056,0.233,0.038,0.354-0.054
		c0.304-0.227,0.894-0.778,1.77-1.655l2.923-2.922c0.876-0.876,1.429-1.467,1.655-1.77c0.092-0.122,0.11-0.24,0.055-0.355
		c-0.029-0.059-0.184-0.25-0.463-0.572l0.012-0.099l0.375-0.376l0.094-0.005c0.285,0.329,0.661,0.727,1.13,1.196
		c0.359,0.359,0.685,0.662,0.974,0.908c-0.182,0.377-0.438,0.91-0.766,1.598l-0.48,1.045l-2.268,5.079l2.389-1.037l3.879-1.767
		c0.459-0.211,0.941-0.452,1.445-0.72c0.311,0.355,0.523,0.59,0.639,0.705c0.577,0.577,1.03,1.008,1.359,1.292l-0.006,0.094
		l-0.381,0.381l-0.095,0.005c-0.322-0.278-0.513-0.433-0.572-0.462c-0.114-0.056-0.233-0.038-0.354,0.054
		c-0.304,0.227-0.894,0.779-1.77,1.655l-2.923,2.922c-0.876,0.876-1.429,1.466-1.655,1.77c-0.092,0.122-0.109,0.24-0.054,0.354
		c0.029,0.059,0.183,0.25,0.462,0.572l-0.012,0.1L114.21,38.711z"/>
	<path fill="#FFFFFF" stroke="#FFFFFF" stroke-miterlimit="10" d="M119.955,46.966l-0.097-0.001
		c-0.505-0.776-0.813-1.242-0.923-1.399c-0.439-0.628-0.86-1.203-1.264-1.724l0.031-0.091l0.404-0.282l0.105,0.002l0.344,0.423
		c0.145,0.179,0.293,0.214,0.447,0.106c0.09-0.063,0.256-0.25,0.501-0.564l1.06-1.36c-0.32-0.477-0.654-0.961-0.998-1.453
		c-0.186-0.267-0.468-0.66-0.844-1.179l-0.939,0.322c-0.712,0.244-1.143,0.419-1.292,0.523c-0.163,0.114-0.202,0.261-0.12,0.442
		c0.045,0.101,0.15,0.287,0.314,0.558l-0.027,0.096l-0.41,0.287l-0.1-0.006c-0.416-0.649-0.688-1.064-0.814-1.246
		c-0.098-0.14-0.354-0.478-0.766-1.012l0.021-0.092l0.416-0.291l0.104,0.011c0.271,0.334,0.51,0.488,0.715,0.464
		c0.206-0.024,1.307-0.346,3.302-0.965l5.114-1.59c0.394-0.128,0.987-0.32,1.781-0.576l0.51,0.727l-6.081,8.301
		c-0.229,0.318-0.333,0.533-0.312,0.646c0.027,0.148,0.115,0.328,0.264,0.54l-0.038,0.095L119.955,46.966z M121.125,41.309
		l2.586-3.443l-4.088,1.298c0.184,0.289,0.432,0.657,0.744,1.104C120.67,40.702,120.923,41.049,121.125,41.309z"/>
	<path fill="#FFFFFF" stroke="#FFFFFF" stroke-miterlimit="10" d="M131.05,56.176c-1.612,0.718-3.137,0.893-4.572,0.524
		c-0.701-0.18-1.326-0.5-1.873-0.959c-0.588-0.49-1.06-1.158-1.413-2.004l-0.854-2.034c-0.234-0.553-0.451-0.999-0.648-1.34
		l0.047-0.088l0.199-0.089l0.099-0.009c0.349,0.182,0.558,0.272,0.624,0.269c0.102-0.004,0.427-0.124,0.978-0.36l1.606-0.694
		l3.618-1.611c1.132-0.504,1.858-0.857,2.179-1.059c0.131-0.081,0.189-0.185,0.179-0.312c-0.007-0.066-0.082-0.299-0.227-0.7
		l0.046-0.089l0.486-0.216l0.089,0.028c0.151,0.417,0.308,0.807,0.471,1.172c0.395,0.887,0.765,1.68,1.11,2.379
		c0.172,0.348,0.338,0.701,0.497,1.059c0.44,0.989,0.638,1.812,0.593,2.465c-0.051,0.716-0.335,1.385-0.851,2.007
		C132.901,55.151,132.107,55.706,131.05,56.176z M129.927,54.575c1.318-0.586,2.219-1.293,2.7-2.118
		c0.253-0.432,0.366-0.882,0.341-1.349c-0.027-0.444-0.192-1.007-0.496-1.688c-0.157-0.354-0.339-0.679-0.545-0.975
		c-0.55,0.199-1.848,0.754-3.894,1.665l-3.114,1.4c-0.692,0.313-1.147,0.534-1.363,0.662c0.082,0.365,0.201,0.722,0.357,1.072
		c0.337,0.758,0.74,1.294,1.212,1.608c0.51,0.339,1.186,0.487,2.028,0.445C128.023,55.252,128.948,55.012,129.927,54.575z"/>
	<path fill="#FFFFFF" stroke="#FFFFFF" stroke-miterlimit="10" d="M130.416,64.903c-0.75,0.161-1.577,0.397-2.483,0.709
		l-0.094-0.034l-1.435-4.312c-0.248-0.717-0.437-1.218-0.568-1.503l0.055-0.084l0.206-0.071l0.099-0.001
		c0.332,0.212,0.531,0.319,0.6,0.323c0.105,0.003,0.439-0.088,1.004-0.273l1.661-0.552l3.745-1.29
		c1.172-0.403,1.926-0.692,2.264-0.865c0.136-0.069,0.204-0.167,0.204-0.295c-0.001-0.066-0.056-0.305-0.164-0.717l0.054-0.085
		l0.502-0.173l0.087,0.036c0.107,0.408,0.304,1.028,0.591,1.859c0.254,0.741,0.754,2.144,1.498,4.21l-0.036,0.085l-0.847,0.206
		c-0.27,0.066-0.496,0.125-0.683,0.176l-0.702,0.195l-0.101-0.031l-0.118-0.343l0.053-0.084c0.669-0.234,1.04-0.397,1.113-0.489
		c0.054-0.067,0.035-0.297-0.057-0.691c-0.092-0.394-0.187-0.735-0.285-1.022c-0.119-0.343-0.255-0.684-0.41-1.022
		c-0.532,0.135-1.256,0.36-2.172,0.675l-1.529,0.527c0.082,0.32,0.157,0.576,0.224,0.769l0.274,0.771
		c0.129,0.361,0.236,0.553,0.322,0.577c0.109,0.032,0.457-0.041,1.039-0.219l0.095,0.034l0.126,0.366l-0.053,0.084
		c-0.558,0.174-1.064,0.34-1.523,0.498c-0.497,0.171-1.039,0.366-1.624,0.585l-0.087-0.036L131.123,63l0.054-0.084
		c0.566-0.195,0.892-0.342,0.976-0.442c0.084-0.099,0.089-0.314,0.014-0.646c-0.059-0.249-0.135-0.509-0.228-0.781
		c-0.099-0.288-0.204-0.552-0.313-0.791l-2.254,0.775c-0.645,0.222-1.267,0.447-1.865,0.676l0.276,0.804
		c0.396,1.15,0.696,1.836,0.898,2.057c0.034,0.037,0.072,0.059,0.114,0.066c0.082,0.016,0.242,0.002,0.481-0.04l0.965-0.174
		l0.102,0.031l0.124,0.36L130.416,64.903z"/>
	<path fill="#FFFFFF" stroke="#FFFFFF" stroke-miterlimit="10" d="M132.365,72.185c-0.758,0.108-1.601,0.287-2.526,0.535
		l-0.091-0.04l-1.131-4.401c-0.197-0.733-0.351-1.246-0.461-1.54l0.059-0.081l0.211-0.057l0.1,0.006
		c0.316,0.234,0.508,0.355,0.574,0.364c0.1,0.012,0.44-0.056,1.021-0.203l1.695-0.435l3.826-1.025
		c1.197-0.321,1.97-0.556,2.318-0.706c0.141-0.059,0.215-0.152,0.225-0.28c0.004-0.066-0.035-0.308-0.115-0.727l0.061-0.081
		l0.513-0.138l0.084,0.042c0.081,0.422,0.229,1.034,0.443,1.835c0.222,0.829,0.405,1.455,0.552,1.877l-0.052,0.079l-0.521,0.14
		l-0.084-0.042c-0.141-0.402-0.229-0.631-0.266-0.686c-0.071-0.106-0.183-0.149-0.334-0.131c-0.377,0.045-1.163,0.228-2.36,0.548
		l-4.513,1.209c-0.659,0.176-1.295,0.358-1.908,0.544l0.22,0.821c0.315,1.175,0.565,1.88,0.753,2.115
		c0.031,0.039,0.068,0.063,0.108,0.074c0.081,0.021,0.243,0.02,0.483-0.006l0.975-0.106l0.1,0.038l0.098,0.368L132.365,72.185z"/>
	<path fill="#FFFFFF" stroke="#FFFFFF" stroke-miterlimit="10" d="M133.14,84.083l-0.832-0.159
		c-0.734-0.774-1.188-1.698-1.357-2.772c-0.34-2.148,0.395-3.771,2.203-4.867c0.838-0.508,1.778-0.845,2.822-1.01
		c1.688-0.267,3.104-0.032,4.249,0.707c1.18,0.754,1.896,1.925,2.146,3.514c0.159,1.008,0.087,2.03-0.219,3.065l-0.103,0.099
		c-0.732-0.027-1.576,0.018-2.533,0.136l-0.086-0.043l-0.059-0.364l0.076-0.075c0.619-0.111,1.049-0.202,1.285-0.273
		c0.644-0.629,0.889-1.43,0.734-2.401c-0.158-1-0.678-1.721-1.561-2.164c-0.882-0.442-2.002-0.556-3.36-0.341
		c-1.837,0.291-3.165,1.021-3.987,2.188c-0.439,0.622-0.588,1.386-0.444,2.291c0.13,0.823,0.522,1.586,1.177,2.288L133.14,84.083z"
		/>
	<path fill="#FFFFFF" stroke="#FFFFFF" stroke-miterlimit="10" d="M132.507,93.978l-0.082-0.051
		c-0.033-0.925-0.057-1.483-0.07-1.674c-0.054-0.765-0.119-1.475-0.195-2.129l0.073-0.062l0.491-0.034l0.09,0.056l0.077,0.54
		c0.031,0.228,0.141,0.335,0.327,0.322c0.109-0.008,0.35-0.083,0.721-0.226l1.609-0.62c-0.029-0.575-0.066-1.161-0.107-1.759
		c-0.023-0.324-0.062-0.806-0.117-1.446l-0.97-0.208c-0.736-0.157-1.196-0.229-1.378-0.217c-0.197,0.014-0.307,0.12-0.33,0.317
		c-0.013,0.109-0.02,0.323-0.018,0.64l-0.074,0.068l-0.498,0.035l-0.082-0.057c-0.023-0.771-0.042-1.267-0.058-1.487
		c-0.012-0.171-0.057-0.591-0.135-1.263l0.065-0.067l0.506-0.035l0.084,0.063c0.061,0.426,0.186,0.682,0.374,0.767
		s1.298,0.376,3.327,0.873l5.203,1.271c0.402,0.093,1.011,0.234,1.822,0.424l0.063,0.885l-9.487,3.984
		c-0.36,0.155-0.56,0.286-0.599,0.393c-0.054,0.141-0.07,0.341-0.053,0.599l-0.082,0.062L132.507,93.978z M136.423,89.731l3.99-1.62
		l-4.173-0.992c0.009,0.342,0.031,0.785,0.069,1.33C136.347,88.977,136.384,89.404,136.423,89.731z"/>
	<path fill="#FFFFFF" stroke="#FFFFFF" stroke-miterlimit="10" d="M132.5,102.835l-0.078-0.063c0-0.029,0.002-0.108,0.008-0.238
		c0.025-0.571,0.039-0.927,0.039-1.068c0-0.212-0.016-0.55-0.047-1.013c0.125-0.017,0.334-0.096,0.625-0.237l3.234-1.55l1.32-0.694
		c0.161-0.088,0.32-0.21,0.477-0.369l0.266,0.069c-0.006,0.096-0.008,0.167-0.008,0.212c0,0.409,0.08,0.729,0.242,0.963
		c0.146,0.212,0.4,0.408,0.766,0.587s0.799,0.269,1.305,0.269c0.88,0,1.475-0.262,1.781-0.788c0.146-0.25,0.219-0.614,0.219-1.094
		c0-0.208-0.021-0.408-0.063-0.6c-0.511-0.042-1.381-0.063-2.609-0.063h-4.086c-1.24,0-2.047,0.027-2.422,0.081
		c-0.15,0.021-0.248,0.092-0.289,0.212c-0.021,0.063-0.047,0.306-0.078,0.731l-0.078,0.063H132.5l-0.078-0.056
		c0.031-0.417,0.047-1.059,0.047-1.925c0-0.896-0.016-1.537-0.047-1.925l0.07-0.063h0.531l0.078,0.063
		c0.031,0.425,0.057,0.668,0.078,0.731c0.041,0.121,0.139,0.192,0.289,0.213c0.375,0.054,1.182,0.081,2.422,0.081h4.133
		c1.239,0,2.047-0.027,2.422-0.081c0.15-0.021,0.248-0.092,0.289-0.213c0.021-0.063,0.047-0.306,0.078-0.731l0.078-0.063h0.531
		l0.07,0.063c-0.031,0.408-0.047,1.05-0.047,1.925c0,0.508,0.008,0.921,0.023,1.238c0.031,0.629,0.047,1.1,0.047,1.412
		c0,0.721-0.08,1.25-0.242,1.587c-0.219,0.454-0.589,0.758-1.109,0.913c-0.256,0.075-0.558,0.113-0.906,0.113
		c-1.417,0-2.422-0.638-3.016-1.913c-0.438,0.208-0.881,0.429-1.328,0.663l-1.852,0.962c-1.094,0.567-1.717,0.944-1.867,1.131
		c-0.078,0.096-0.117,0.229-0.117,0.4L133,102.835H132.5z"/>
	<path fill="#FFFFFF" stroke="#FFFFFF" stroke-miterlimit="10" d="M132.287,107.031l-0.074-0.06
		c0.053-0.415,0.102-1.057,0.147-1.926c0.045-0.865,0.063-1.507,0.054-1.925l0.081-0.052l0.522,0.027l0.074,0.067
		c0.01,0.426,0.023,0.67,0.041,0.734c0.035,0.123,0.127,0.199,0.277,0.228c0.371,0.074,1.176,0.143,2.414,0.208l4.127,0.216
		c1.238,0.065,2.045,0.08,2.423,0.045c0.151-0.013,0.252-0.079,0.3-0.197c0.023-0.062,0.063-0.304,0.116-0.726l0.081-0.059
		l0.531,0.028l0.066,0.066c-0.053,0.398-0.102,1.038-0.147,1.92c-0.046,0.878-0.063,1.518-0.054,1.919l-0.073,0.059l-0.53-0.028
		l-0.075-0.066c-0.009-0.426-0.022-0.671-0.04-0.734c-0.035-0.123-0.127-0.199-0.277-0.228c-0.371-0.074-1.176-0.143-2.414-0.208
		l-4.127-0.216c-1.238-0.064-2.046-0.08-2.424-0.045c-0.151,0.013-0.251,0.079-0.299,0.197c-0.024,0.062-0.063,0.304-0.117,0.727
		l-0.08,0.058L132.287,107.031z"/>
	<path fill="#FFFFFF" stroke="#FFFFFF" stroke-miterlimit="10" d="M135.023,115.11c-1.3-0.137-2.254-0.746-2.863-1.828
		c-0.3-0.534-0.408-1.193-0.326-1.976c0.025-0.249,0.05-0.454,0.072-0.615l0.195-1.481c0.055-0.53,0.083-0.942,0.082-1.235
		l0.084-0.054l0.219,0.023l0.09,0.041c0.211,0.332,0.346,0.514,0.406,0.545c0.089,0.047,0.431,0.106,1.025,0.177l1.738,0.202
		l3.939,0.414c1.232,0.13,2.039,0.187,2.417,0.172c0.153-0.005,0.256-0.065,0.31-0.181c0.027-0.06,0.079-0.3,0.154-0.719
		l0.084-0.054l0.529,0.055l0.063,0.07c-0.069,0.366-0.152,0.998-0.246,1.897c-0.061,0.572-0.102,1.089-0.124,1.552
		c-0.018,0.367-0.04,0.677-0.065,0.93c-0.122,1.155-0.531,1.88-1.227,2.171c-0.367,0.154-0.775,0.207-1.227,0.16
		c-0.735-0.077-1.325-0.371-1.77-0.883c-0.209-0.244-0.359-0.49-0.448-0.739c-0.101-0.286-0.181-0.597-0.239-0.93
		C137.623,114.521,136.666,115.283,135.023,115.11z M140.169,113.458c1.145,0.12,1.768-0.296,1.867-1.249
		c0.033-0.315,0.041-0.584,0.022-0.809c-0.542-0.074-1.044-0.135-1.505-0.183l-2.145-0.226c-0.02,0.094-0.045,0.284-0.076,0.57
		c-0.078,0.75,0.17,1.275,0.746,1.575C139.413,113.309,139.776,113.416,140.169,113.458z M134.982,113.184
		c1.555,0.162,2.4-0.408,2.537-1.713c0.018-0.166,0.029-0.355,0.036-0.568l-3.597-0.378c-0.389-0.041-0.771-0.073-1.146-0.095
		c-0.054,0.166-0.097,0.402-0.13,0.709c-0.061,0.58,0.12,1.052,0.543,1.415C133.63,112.893,134.216,113.103,134.982,113.184z"/>
	<path fill="#FFFFFF" stroke="#FFFFFF" stroke-miterlimit="10" d="M132.997,122.591c-0.737-0.21-1.579-0.39-2.524-0.539
		l-0.068-0.074l0.758-4.48c0.118-0.749,0.187-1.28,0.205-1.594l0.086-0.05l0.217,0.035l0.088,0.045
		c0.193,0.343,0.318,0.531,0.377,0.566c0.092,0.053,0.43,0.129,1.016,0.23l1.725,0.292l3.912,0.62
		c1.225,0.193,2.026,0.293,2.405,0.298c0.152,0.003,0.259-0.052,0.319-0.165c0.029-0.059,0.094-0.295,0.191-0.709l0.087-0.05
		l0.524,0.083l0.06,0.072c-0.097,0.411-0.214,1.051-0.352,1.919c-0.122,0.774-0.34,2.247-0.652,4.421l-0.073,0.059l-0.844-0.217
		c-0.268-0.067-0.496-0.123-0.686-0.165l-0.711-0.157l-0.074-0.074l0.057-0.358l0.087-0.05c0.7,0.107,1.104,0.137,1.212,0.091
		c0.078-0.034,0.17-0.246,0.274-0.637s0.18-0.736,0.228-1.036c0.057-0.358,0.096-0.724,0.118-1.096
		c-0.533-0.131-1.278-0.271-2.235-0.424l-1.597-0.252c-0.077,0.32-0.132,0.582-0.163,0.783l-0.121,0.811
		c-0.055,0.379-0.051,0.6,0.014,0.66c0.082,0.08,0.423,0.179,1.021,0.295l0.067,0.074l-0.061,0.382l-0.087,0.05
		c-0.574-0.107-1.1-0.199-1.578-0.275c-0.52-0.082-1.09-0.164-1.709-0.245l-0.06-0.073l0.065-0.413l0.087-0.05
		c0.591,0.094,0.948,0.117,1.069,0.068s0.226-0.236,0.314-0.564c0.065-0.246,0.121-0.512,0.166-0.797
		c0.047-0.3,0.078-0.582,0.094-0.845l-2.354-0.373c-0.674-0.106-1.328-0.2-1.965-0.279l-0.133,0.839
		c-0.19,1.203-0.248,1.948-0.172,2.238c0.013,0.049,0.036,0.086,0.068,0.112c0.066,0.053,0.214,0.116,0.444,0.19l0.934,0.301
		l0.075,0.074l-0.06,0.377L132.997,122.591z"/>
</g>
<g>
	<g>
		<path fill="#FFFFFF" d="M21.136,145.113l0.132,1.566c-0.851,0.103-1.56-0.018-2.128-0.361s-1.004-0.898-1.306-1.662
			c-0.374-0.947-0.365-1.855,0.027-2.726s1.135-1.532,2.231-1.985c1.16-0.479,2.181-0.545,3.064-0.198s1.522,1.021,1.916,2.019
			c0.344,0.871,0.372,1.684,0.082,2.436c-0.17,0.447-0.502,0.868-0.997,1.261l-0.892-1.286c0.327-0.232,0.542-0.526,0.645-0.881
			c0.103-0.354,0.079-0.721-0.072-1.104c-0.209-0.529-0.563-0.881-1.063-1.057c-0.5-0.176-1.165-0.094-1.994,0.25
			c-0.879,0.363-1.442,0.784-1.687,1.263s-0.266,0.978-0.061,1.497c0.151,0.382,0.4,0.662,0.747,0.84
			C20.126,145.162,20.579,145.205,21.136,145.113z"/>
		<polygon fill="#FFFFFF" points="20.002,149.221 26.751,145.854 27.417,147.252 20.669,150.619 		"/>
		<polygon fill="#FFFFFF" points="21.584,152.492 28.086,148.65 30.865,153.575 29.766,154.225 27.748,150.646 26.304,151.5 
			28.181,154.826 27.082,155.476 25.205,152.149 23.443,153.189 25.535,156.896 24.436,157.546 		"/>
		<polygon fill="#FFFFFF" points="25.477,159.307 31.627,154.9 32.471,156.135 30.122,161.676 34.243,158.723 35.049,159.9 
			28.899,164.307 28.028,163.034 30.326,157.588 26.283,160.484 		"/>
		<path fill="#FFFFFF" d="M35.5,168.194l0.598,1.447c-0.778,0.366-1.489,0.477-2.133,0.329c-0.645-0.146-1.226-0.537-1.744-1.168
			c-0.641-0.782-0.907-1.648-0.797-2.6c0.109-0.952,0.617-1.816,1.522-2.594c0.958-0.823,1.91-1.209,2.854-1.158
			s1.756,0.488,2.432,1.313c0.59,0.72,0.862,1.483,0.814,2.292c-0.027,0.479-0.216,0.983-0.568,1.514l-1.237-0.941
			c0.241-0.325,0.356-0.672,0.348-1.041s-0.143-0.712-0.402-1.027c-0.358-0.438-0.802-0.66-1.331-0.67
			c-0.529-0.009-1.136,0.281-1.82,0.869c-0.727,0.623-1.134,1.201-1.223,1.734s0.042,1.014,0.395,1.441
			c0.259,0.316,0.581,0.504,0.963,0.564C34.554,168.559,34.997,168.457,35.5,168.194z"/>
		<polygon fill="#FFFFFF" points="35.63,172.505 41.031,167.169 42.087,168.288 36.687,173.624 		"/>
		<path fill="#FFFFFF" d="M43.494,179.766l-1.254-1.076l0.602-1.767l-2.308-1.981l-1.576,0.93l-1.231-1.057l7.06-3.967l1.23,1.056
			L43.494,179.766z M43.28,175.604l0.987-2.863l-2.563,1.512L43.28,175.604z"/>
		<path fill="#FFFFFF" d="M47.279,182.588l3.867-6.585l2.083,1.28c0.789,0.486,1.285,0.836,1.486,1.049
			c0.31,0.325,0.492,0.729,0.546,1.213c0.054,0.484-0.072,0.988-0.38,1.512c-0.237,0.404-0.508,0.701-0.813,0.889
			c-0.305,0.188-0.613,0.291-0.926,0.313c-0.313,0.021-0.598-0.013-0.856-0.101c-0.346-0.128-0.813-0.372-1.4-0.732l-0.845-0.52
			l-1.458,2.482L47.279,182.588z M51.795,177.917l-1.102,1.876l0.708,0.436c0.51,0.313,0.872,0.488,1.084,0.525
			c0.212,0.037,0.411,0.012,0.595-0.076c0.184-0.087,0.333-0.229,0.448-0.424c0.142-0.24,0.189-0.48,0.144-0.722
			c-0.045-0.241-0.161-0.444-0.348-0.612c-0.137-0.126-0.438-0.332-0.905-0.619L51.795,177.917z"/>
		<path fill="#FFFFFF" d="M59.781,189.172l-1.496-0.682l0.103-1.867l-2.752-1.254l-1.265,1.338l-1.469-0.669l5.718-5.804
			l1.467,0.668L59.781,189.172z M58.454,185.231l0.177-3.031l-2.056,2.175L58.454,185.231z"/>
		<path fill="#FFFFFF" d="M61.836,189.836l1.943-7.42l3.084,0.846c0.775,0.213,1.321,0.434,1.638,0.663
			c0.316,0.229,0.536,0.544,0.658,0.942s0.125,0.817,0.011,1.256c-0.146,0.557-0.426,0.973-0.839,1.248
			c-0.414,0.275-0.95,0.373-1.609,0.294c0.266,0.275,0.472,0.554,0.617,0.837c0.146,0.281,0.317,0.76,0.514,1.432l0.506,1.69
			l-1.75-0.479l-0.626-1.908c-0.227-0.678-0.39-1.111-0.49-1.299c-0.1-0.188-0.22-0.332-0.361-0.43
			c-0.141-0.098-0.38-0.193-0.718-0.286l-0.298-0.081l-0.811,3.098L61.836,189.836z M64.425,185.959l1.083,0.297
			c0.703,0.192,1.149,0.282,1.34,0.27c0.19-0.014,0.355-0.08,0.493-0.202s0.236-0.294,0.294-0.517
			c0.065-0.25,0.053-0.471-0.037-0.66s-0.249-0.337-0.475-0.442c-0.114-0.05-0.468-0.155-1.062-0.318l-1.142-0.313L64.425,185.959z"
			/>
		<path fill="#FFFFFF" d="M77.386,192.549l-1.631-0.146l-0.496-1.8l-3.001-0.269l-0.77,1.686l-1.602-0.143l3.559-7.393l1.6,0.144
			L77.386,192.549z M74.878,189.266l-0.798-2.926l-1.251,2.742L74.878,189.266z"/>
		<polygon fill="#FFFFFF" points="82.525,192.381 81.609,184.756 87.125,184.063 87.281,185.352 83.273,185.855 83.476,187.549 
			87.203,187.08 87.357,188.369 83.63,188.837 83.878,190.902 88.032,190.381 88.187,191.67 		"/>
		<polygon fill="#FFFFFF" points="90.615,191.105 88.687,183.747 90.156,183.345 91.755,189.448 95.391,188.451 95.719,189.705 		
			"/>
		<path fill="#FFFFFF" d="M100.657,187.766l-3.173-6.962l2.203-1.052c0.834-0.397,1.395-0.623,1.68-0.674
			c0.438-0.081,0.867-0.01,1.289,0.215s0.76,0.614,1.012,1.168c0.195,0.428,0.283,0.823,0.266,1.187
			c-0.02,0.364-0.107,0.685-0.264,0.962c-0.158,0.277-0.345,0.5-0.561,0.669c-0.297,0.223-0.756,0.481-1.377,0.778l-0.894,0.426
			l1.196,2.625L100.657,187.766z M99.398,181.322l0.904,1.984l0.749-0.357c0.54-0.258,0.884-0.467,1.032-0.627
			c0.148-0.159,0.238-0.342,0.271-0.547c0.031-0.205,0.001-0.41-0.094-0.617c-0.115-0.254-0.283-0.43-0.504-0.525
			c-0.22-0.097-0.451-0.112-0.691-0.048c-0.178,0.046-0.514,0.187-1.007,0.423L99.398,181.322z"/>
		<path fill="#FFFFFF" d="M108.037,183.84l-4.198-6.369l2.647-1.826c0.666-0.459,1.188-0.736,1.564-0.83s0.752-0.057,1.126,0.11
			s0.686,0.439,0.934,0.815c0.315,0.479,0.438,0.967,0.37,1.467s-0.348,0.979-0.84,1.436c0.378-0.024,0.719,0,1.023,0.072
			c0.303,0.072,0.768,0.254,1.393,0.543l1.58,0.719l-1.503,1.036l-1.817-0.769c-0.65-0.27-1.076-0.428-1.281-0.475
			c-0.203-0.046-0.388-0.047-0.553-0.002c-0.165,0.044-0.393,0.166-0.682,0.366l-0.256,0.177l1.754,2.658L108.037,183.84z
			 M106.876,179.296l0.93-0.642c0.602-0.416,0.961-0.701,1.076-0.857c0.116-0.155,0.174-0.326,0.176-0.513
			c0-0.187-0.063-0.375-0.189-0.566c-0.141-0.215-0.311-0.35-0.51-0.404c-0.199-0.056-0.412-0.029-0.639,0.076
			c-0.111,0.056-0.422,0.26-0.932,0.61l-0.98,0.678L106.876,179.296z"/>
		<path fill="#FFFFFF" d="M112.48,176.107c-0.514-0.582-0.859-1.15-1.037-1.702c-0.129-0.408-0.186-0.829-0.17-1.263
			s0.105-0.828,0.269-1.18c0.215-0.472,0.55-0.917,1.004-1.336c0.823-0.758,1.712-1.103,2.665-1.035
			c0.954,0.068,1.842,0.568,2.661,1.5c0.813,0.924,1.204,1.871,1.173,2.844c-0.031,0.974-0.457,1.838-1.277,2.594
			c-0.83,0.765-1.719,1.113-2.666,1.045C114.155,177.508,113.281,177.018,112.48,176.107z M113.607,174.999
			c0.568,0.647,1.146,1.003,1.733,1.067c0.587,0.065,1.104-0.109,1.556-0.524c0.449-0.415,0.673-0.921,0.67-1.519
			c-0.003-0.597-0.297-1.227-0.88-1.89c-0.576-0.655-1.147-1.015-1.712-1.078s-1.08,0.119-1.545,0.548s-0.697,0.938-0.695,1.525
			C112.737,173.719,113.027,174.342,113.607,174.999z"/>
		<path fill="#FFFFFF" d="M122.167,167.785l-0.958-0.852l2.141-2.518l2.261,2.011c0.024,0.452-0.071,0.989-0.29,1.611
			c-0.217,0.622-0.529,1.173-0.934,1.649c-0.516,0.605-1.088,1.022-1.721,1.252c-0.631,0.229-1.275,0.25-1.932,0.064
			s-1.256-0.521-1.801-1.006c-0.592-0.525-1.01-1.119-1.254-1.781c-0.245-0.662-0.283-1.346-0.115-2.051
			c0.128-0.539,0.427-1.086,0.896-1.639c0.611-0.721,1.236-1.15,1.876-1.292s1.27-0.038,1.89,0.31l-0.777,1.356
			c-0.348-0.167-0.697-0.209-1.051-0.128c-0.352,0.082-0.672,0.291-0.957,0.628c-0.434,0.511-0.62,1.058-0.559,1.641
			s0.404,1.153,1.029,1.708c0.674,0.6,1.309,0.896,1.904,0.891s1.104-0.257,1.525-0.752c0.207-0.244,0.369-0.531,0.484-0.861
			c0.114-0.33,0.18-0.643,0.195-0.938l-0.719-0.641L122.167,167.785z"/>
		<path fill="#FFFFFF" d="M127.685,165.393l-6.074-4.514l1.876-2.643c0.472-0.666,0.87-1.107,1.192-1.328
			c0.323-0.22,0.688-0.316,1.096-0.29c0.408,0.026,0.791,0.173,1.15,0.439c0.455,0.339,0.734,0.755,0.838,1.249
			c0.103,0.494,0,1.041-0.309,1.643c0.346-0.155,0.674-0.252,0.984-0.29s0.807-0.03,1.491,0.022l1.724,0.122l-1.064,1.5
			l-1.965-0.085c-0.701-0.027-1.155-0.027-1.362,0.001s-0.381,0.092-0.521,0.191c-0.141,0.1-0.313,0.294-0.519,0.583l-0.182,0.256
			l2.537,1.885L127.685,165.393z M125.075,161.53l0.659-0.928c0.428-0.603,0.669-0.996,0.726-1.183
			c0.057-0.188,0.054-0.368-0.007-0.543c-0.063-0.176-0.184-0.332-0.367-0.467c-0.205-0.152-0.409-0.22-0.615-0.201
			c-0.205,0.018-0.396,0.116-0.573,0.295c-0.087,0.092-0.31,0.391-0.671,0.9l-0.695,0.979L125.075,161.53z"/>
		<polygon fill="#FFFFFF" points="132.519,158.281 126.016,154.44 128.794,149.517 129.894,150.166 127.875,153.742 129.32,154.596 
			131.197,151.27 132.294,151.918 130.417,155.244 132.179,156.285 134.272,152.578 135.371,153.227 		"/>
		<path fill="#FFFFFF" d="M133.821,150.801l0.517-1.425c0.482,0.14,0.888,0.138,1.215-0.007c0.326-0.145,0.591-0.428,0.793-0.852
			c0.213-0.447,0.281-0.83,0.203-1.15c-0.077-0.318-0.24-0.541-0.488-0.664c-0.159-0.08-0.318-0.1-0.475-0.061
			c-0.158,0.039-0.334,0.157-0.531,0.354c-0.133,0.135-0.407,0.457-0.824,0.965c-0.537,0.652-1.009,1.064-1.416,1.232
			c-0.574,0.235-1.129,0.221-1.664-0.047c-0.346-0.172-0.62-0.433-0.826-0.781c-0.205-0.349-0.297-0.748-0.275-1.201
			c0.021-0.452,0.158-0.942,0.41-1.471c0.411-0.864,0.908-1.421,1.492-1.67c0.582-0.25,1.192-0.229,1.829,0.061l-0.62,1.422
			c-0.376-0.114-0.688-0.112-0.932,0.006c-0.246,0.119-0.461,0.373-0.646,0.762c-0.192,0.402-0.26,0.758-0.205,1.066
			c0.034,0.199,0.14,0.342,0.315,0.43c0.16,0.08,0.33,0.08,0.51-0.002c0.229-0.103,0.583-0.453,1.062-1.051
			c0.479-0.599,0.88-1.018,1.201-1.259c0.322-0.241,0.672-0.38,1.049-0.419c0.378-0.038,0.779,0.049,1.207,0.262
			c0.387,0.193,0.696,0.484,0.93,0.872c0.232,0.388,0.335,0.824,0.308,1.308c-0.027,0.484-0.184,1.025-0.47,1.625
			c-0.416,0.873-0.932,1.444-1.548,1.716S134.617,151.086,133.821,150.801z"/>
		<path fill="#FFFFFF" d="M135.86,143.278c-0.716-0.281-1.274-0.626-1.679-1.036c-0.297-0.303-0.533-0.652-0.713-1.046
			c-0.178-0.394-0.272-0.786-0.283-1.176c-0.018-0.521,0.082-1.072,0.302-1.656c0.397-1.058,1.035-1.777,1.915-2.16
			c0.881-0.382,1.893-0.349,3.036,0.101c1.134,0.445,1.903,1.107,2.308,1.99c0.404,0.881,0.408,1.848,0.013,2.902
			c-0.4,1.067-1.037,1.791-1.911,2.17C137.974,143.747,136.978,143.717,135.86,143.278z M136.373,141.768
			c0.795,0.312,1.467,0.36,2.019,0.146s0.936-0.611,1.152-1.19c0.218-0.578,0.192-1.133-0.076-1.664
			c-0.268-0.53-0.809-0.955-1.622-1.275c-0.805-0.316-1.473-0.371-2.004-0.165s-0.91,0.607-1.134,1.206
			c-0.225,0.598-0.205,1.158,0.058,1.682C135.029,141.029,135.564,141.449,136.373,141.768z"/>
	</g>
</g>
<g>
	<g>
		<path fill="#FFFFFF" d="M48.494,47.676l-4.119-4.562l1.545-1.711c0.314-0.349,0.608-0.582,0.882-0.7
			c0.273-0.119,0.55-0.141,0.832-0.069c0.281,0.073,0.516,0.214,0.705,0.423c0.176,0.195,0.294,0.431,0.354,0.709
			c0.06,0.277,0.042,0.576-0.055,0.895c0.322-0.195,0.638-0.269,0.948-0.223c0.31,0.047,0.585,0.203,0.825,0.469
			c0.193,0.213,0.332,0.458,0.416,0.731c0.084,0.274,0.112,0.527,0.082,0.759s-0.112,0.474-0.248,0.726
			c-0.135,0.251-0.333,0.522-0.596,0.813L48.494,47.676z M46.653,44.426l0.891-0.986c0.241-0.268,0.399-0.478,0.472-0.629
			c0.097-0.2,0.133-0.391,0.107-0.575c-0.025-0.184-0.11-0.356-0.255-0.516c-0.137-0.152-0.291-0.25-0.46-0.292
			c-0.17-0.043-0.335-0.019-0.495,0.074c-0.161,0.092-0.389,0.302-0.685,0.63l-0.823,0.912L46.653,44.426z M48.557,46.535
			l1.026-1.137c0.176-0.195,0.293-0.339,0.351-0.433c0.103-0.164,0.17-0.322,0.202-0.473c0.032-0.152,0.024-0.313-0.021-0.485
			c-0.046-0.171-0.135-0.33-0.267-0.476c-0.154-0.171-0.328-0.275-0.521-0.314c-0.193-0.038-0.382-0.005-0.567,0.098
			c-0.186,0.104-0.41,0.3-0.672,0.591l-0.953,1.055L48.557,46.535z"/>
		<path fill="#FFFFFF" d="M52.064,43.763l-1.721-6.642l0.676-0.564l5.4,3.571l-0.701,0.585l-1.6-1.113l-1.959,1.635l0.558,1.982
			L52.064,43.763z M51.963,40.53l1.585-1.323l-1.458-1.022c-0.441-0.313-0.796-0.579-1.065-0.798
			c0.164,0.389,0.304,0.791,0.418,1.206L51.963,40.53z"/>
		<path fill="#FFFFFF" d="M57.102,39.563l-2.824-5.643l2.258-1.387c0.454-0.278,0.824-0.439,1.11-0.483s0.564,0.02,0.834,0.189
			s0.482,0.41,0.637,0.72c0.2,0.4,0.252,0.809,0.156,1.227c-0.096,0.418-0.37,0.814-0.821,1.188
			c0.226-0.014,0.408-0.004,0.547,0.032c0.297,0.079,0.608,0.216,0.934,0.409l1.65,0.996l-0.842,0.517l-1.261-0.762
			c-0.366-0.218-0.658-0.378-0.875-0.479c-0.217-0.102-0.394-0.158-0.531-0.167c-0.136-0.01-0.264,0.003-0.382,0.039
			c-0.085,0.029-0.215,0.097-0.388,0.204l-0.781,0.479l1.254,2.506L57.102,39.563z M56.201,35.996l1.447-0.889
			c0.308-0.189,0.53-0.372,0.667-0.548c0.137-0.176,0.212-0.37,0.224-0.581c0.012-0.21-0.027-0.407-0.119-0.589
			c-0.133-0.267-0.331-0.433-0.59-0.498c-0.26-0.065-0.579,0.018-0.955,0.249l-1.61,0.989L56.201,35.996z"/>
		<path fill="#FFFFFF" d="M62.52,36.34l-1.992-6.063l2.427-0.978c0.487-0.196,0.875-0.292,1.165-0.285
			c0.289,0.006,0.555,0.117,0.797,0.332c0.243,0.214,0.418,0.488,0.528,0.822c0.141,0.43,0.135,0.843-0.02,1.239
			s-0.48,0.74-0.979,1.031c0.225,0.025,0.404,0.067,0.536,0.126c0.282,0.13,0.57,0.318,0.865,0.566l1.489,1.27l-0.904,0.365
			l-1.138-0.971c-0.331-0.279-0.597-0.488-0.797-0.625c-0.2-0.138-0.367-0.224-0.5-0.257c-0.134-0.033-0.261-0.042-0.383-0.028
			c-0.088,0.014-0.226,0.059-0.412,0.134l-0.839,0.338l0.885,2.693L62.52,36.34z M62.134,32.661l1.555-0.626
			c0.331-0.133,0.576-0.275,0.737-0.426c0.161-0.15,0.262-0.329,0.304-0.535c0.042-0.206,0.03-0.407-0.034-0.603
			c-0.094-0.287-0.265-0.485-0.513-0.594c-0.248-0.109-0.574-0.083-0.978,0.08l-1.73,0.697L62.134,32.661z"/>
		<path fill="#FFFFFF" d="M67.671,34.29l1.083-6.806l0.831-0.179l3.44,5.832l-0.861,0.186l-0.998-1.777l-2.408,0.519l-0.284,2.053
			L67.671,34.29z M68.861,31.335l1.949-0.419l-0.905-1.626c-0.273-0.496-0.487-0.907-0.642-1.235
			c-0.006,0.429-0.04,0.858-0.101,1.288L68.861,31.335z"/>
		<polygon fill="#FFFFFF" points="73.91,33.112 73.808,26.661 74.6,26.646 77.736,31.651 77.656,26.587 78.396,26.573 
			78.498,33.023 77.707,33.039 74.57,28.034 74.65,33.098 		"/>
		<path fill="#FFFFFF" d="M84.633,33.343c0.306,0.343,0.597,0.609,0.873,0.797l-0.327,0.534c-0.383-0.252-0.747-0.598-1.094-1.039
			c-0.469,0.169-0.959,0.199-1.471,0.088c-0.516-0.111-0.961-0.35-1.332-0.717c-0.373-0.367-0.628-0.825-0.768-1.374
			c-0.139-0.55-0.154-1.138-0.043-1.765c0.109-0.625,0.322-1.168,0.641-1.631c0.318-0.462,0.713-0.782,1.182-0.959
			s0.965-0.208,1.486-0.096c0.527,0.113,0.979,0.354,1.354,0.723s0.629,0.827,0.764,1.374s0.146,1.134,0.036,1.761
			c-0.091,0.521-0.245,0.973-0.462,1.358C85.256,32.783,84.976,33.098,84.633,33.343z M83.16,31.916
			c0.412,0.229,0.736,0.508,0.972,0.836c0.522-0.353,0.862-0.979,1.021-1.878c0.09-0.512,0.09-0.975,0-1.391
			s-0.268-0.762-0.533-1.039c-0.265-0.276-0.585-0.455-0.961-0.536c-0.563-0.121-1.066-0.008-1.512,0.338
			c-0.446,0.347-0.744,0.944-0.893,1.792c-0.145,0.822-0.071,1.492,0.219,2.011c0.289,0.519,0.72,0.839,1.29,0.962
			c0.27,0.058,0.533,0.057,0.792-0.004c-0.207-0.22-0.434-0.395-0.684-0.523L83.16,31.916z"/>
		<path fill="#FFFFFF" d="M92.191,29.949l0.727,0.292l-1.15,3.502c-0.2,0.609-0.422,1.068-0.664,1.376
			c-0.241,0.308-0.561,0.509-0.959,0.603c-0.398,0.094-0.86,0.035-1.387-0.177c-0.512-0.207-0.898-0.473-1.16-0.8
			c-0.26-0.327-0.399-0.704-0.417-1.13c-0.017-0.427,0.079-0.961,0.29-1.604l1.151-3.502l0.726,0.293l-1.149,3.5
			c-0.173,0.527-0.257,0.933-0.251,1.218s0.094,0.538,0.264,0.76s0.41,0.395,0.72,0.52c0.53,0.213,0.952,0.232,1.266,0.056
			s0.595-0.646,0.845-1.407L92.191,29.949z"/>
		<polygon fill="#FFFFFF" points="92.384,37.159 95.029,31.411 95.716,31.8 93.072,37.548 		"/>
		<polygon fill="#FFFFFF" points="94.402,38.271 97.489,32.8 98.144,33.253 95.419,38.083 97.847,39.764 97.486,40.405 		"/>
		<polygon fill="#FFFFFF" points="98.321,41.145 101.986,36.131 102.587,36.67 99.351,41.096 101.577,43.092 101.147,43.68 		"/>
		<path fill="#FFFFFF" d="M101.536,43.938l5.698-2.812l0.6,0.663l-2.441,6.42l-0.621-0.688l0.772-1.91l-1.735-1.921l-1.694,0.888
			L101.536,43.938z M104.412,43.378l1.404,1.555l0.711-1.741c0.219-0.528,0.406-0.954,0.565-1.28
			c-0.325,0.234-0.665,0.443-1.021,0.626L104.412,43.378z"/>
	</g>
</g>
</svg>
